<svg xmlns="http://www.w3.org/2000/svg" xmlns:xlink="http://www.w3.org/1999/xlink" width="57.24" height="65.812" viewBox="0 0 57.24 65.812">
  <defs>
    <clipPath id="clip-path">
      <rect id="Rectangle_1035" data-name="Rectangle 1035" width="57.24" height="65.812" fill="none" stroke="#707070" stroke-linecap="round" stroke-linejoin="round" stroke-width="2"/>
    </clipPath>
  </defs>
  <g id="Group_2508" data-name="Group 2508" transform="translate(0 0)">
    <path id="Path_2316" data-name="Path 2316" d="M27.231,61.273H1.5V1.5H45V30.128" transform="translate(-0.163 -0.162)" fill="#fff" stroke="#707070" stroke-linecap="round" stroke-linejoin="round" stroke-width="2"/>
    <g id="Group_2505" data-name="Group 2505" transform="translate(0 0)">
      <g id="Group_2504" data-name="Group 2504" clip-path="url(#clip-path)">
        <path id="Path_2317" data-name="Path 2317" d="M27.231,61.273H1.5V1.5H45V30.128" transform="translate(-0.163 -0.162)" fill="none" stroke="#9c9c9c" stroke-linecap="round" stroke-linejoin="round" stroke-width="2"/>
      </g>
    </g>
    <rect id="Rectangle_1036" data-name="Rectangle 1036" width="12.167" height="3.642" transform="translate(7.192 40.002)" fill="#dcdcdc"/>
    <path id="Path_2318" data-name="Path 2318" d="M50.29,48.483v0Z" transform="translate(-5.456 -4.386)" fill="#fff" stroke="#707070" stroke-linecap="round" stroke-linejoin="round" stroke-width="2"/>
    <line id="Line_383" data-name="Line 383" y2="8.055" transform="translate(44.835 36.042)" fill="none" stroke="#9c9c9c" stroke-linecap="round" stroke-linejoin="round" stroke-width="2"/>
    <rect id="Rectangle_1037" data-name="Rectangle 1037" width="20.186" height="13.559" transform="translate(7.192 7.192)" fill="#fff" stroke="#707070" stroke-linecap="round" stroke-linejoin="round" stroke-width="2"/>
    <rect id="Rectangle_1038" data-name="Rectangle 1038" width="20.186" height="13.559" transform="translate(7.192 7.192)" fill="none" stroke="#9c9c9c" stroke-linecap="round" stroke-linejoin="round" stroke-width="2"/>
    <path id="Path_2319" data-name="Path 2319" d="M8.067,32.3h0Z" transform="translate(-0.875 -3.505)" fill="#fff" stroke="#707070" stroke-linecap="round" stroke-linejoin="round" stroke-width="2"/>
    <line id="Line_384" data-name="Line 384" x2="20.202" transform="translate(7.192 28.799)" fill="none" stroke="#9c9c9c" stroke-linecap="round" stroke-linejoin="round" stroke-width="2"/>
    <path id="Path_2320" data-name="Path 2320" d="M8.067,39.3h0Z" transform="translate(-0.875 -4.264)" fill="#fff" stroke="#707070" stroke-linecap="round" stroke-linejoin="round" stroke-width="2"/>
    <line id="Line_385" data-name="Line 385" x2="20.202" transform="translate(7.192 35.037)" fill="none" stroke="#9c9c9c" stroke-linecap="round" stroke-linejoin="round" stroke-width="2"/>
    <path id="Path_2321" data-name="Path 2321" d="M12.752,19.162H24.583V11.215a21.473,21.473,0,0,1-11.831,7.947" transform="translate(-1.384 -1.217)" fill="#dcdcdc"/>
    <rect id="Rectangle_1039" data-name="Rectangle 1039" width="28.833" height="20.379" transform="translate(27.069 44.096)" fill="none" stroke="#9c9c9c" stroke-linecap="round" stroke-linejoin="round" stroke-width="2"/>
    <path id="Path_2322" data-name="Path 2322" d="M45.168,33.909h0A11.219,11.219,0,0,0,33.949,45.128v2.648H56.387V45.128A11.219,11.219,0,0,0,45.168,33.909Z" transform="translate(-3.683 -3.678)" fill="none" stroke="#9c9c9c" stroke-linecap="round" stroke-linejoin="round" stroke-width="2"/>
    <path id="Path_2323" data-name="Path 2323" d="M49.475,58.039a3.349,3.349,0,1,0-4.752,3.039v4.671h2.8V61.078a3.348,3.348,0,0,0,1.947-3.039" transform="translate(-4.641 -5.934)" fill="#dcdcdc"/>
    <path id="Path_2324" data-name="Path 2324" d="M52.623,47.857V46.134a6.942,6.942,0,1,0-13.866,0v1.723" transform="translate(-4.204 -4.213)" fill="none" stroke="#9c9c9c" stroke-linecap="round" stroke-linejoin="round" stroke-width="2"/>
  </g>
</svg>
