<svg xmlns="http://www.w3.org/2000/svg" xmlns:xlink="http://www.w3.org/1999/xlink" width="60.316" height="65.728" viewBox="0 0 60.316 65.728">
  <defs>
    <clipPath id="clip-path">
      <rect id="Rectangle_1046" data-name="Rectangle 1046" width="60.316" height="65.728" fill="none" stroke="#707070" stroke-linecap="round" stroke-linejoin="round" stroke-width="2"/>
    </clipPath>
  </defs>
  <g id="Group_2518" data-name="Group 2518" transform="translate(0 0)">
    <path id="Path_2338" data-name="Path 2338" d="M27.231,61.273H1.5V1.5H45V32.183" transform="translate(-0.163 -0.162)" fill="#fff" stroke="#707070" stroke-linecap="round" stroke-linejoin="round" stroke-width="2"/>
    <g id="Group_2515" data-name="Group 2515" transform="translate(0 0.001)">
      <g id="Group_2514" data-name="Group 2514" clip-path="url(#clip-path)">
        <path id="Path_2339" data-name="Path 2339" d="M27.231,61.273H1.5V1.5H45V32.183" transform="translate(-0.163 -0.163)" fill="none" stroke="#9c9c9c" stroke-linecap="round" stroke-linejoin="round" stroke-width="2"/>
      </g>
    </g>
    <rect id="Rectangle_1047" data-name="Rectangle 1047" width="12.167" height="3.642" transform="translate(7.192 40.003)" fill="#dcdcdc"/>
    <rect id="Rectangle_1048" data-name="Rectangle 1048" width="20.186" height="13.559" transform="translate(7.192 7.192)" fill="#fff" stroke="#707070" stroke-linecap="round" stroke-linejoin="round" stroke-width="2"/>
    <rect id="Rectangle_1049" data-name="Rectangle 1049" width="20.186" height="13.559" transform="translate(7.192 7.192)" fill="none" stroke="#9c9c9c" stroke-linecap="round" stroke-linejoin="round" stroke-width="2"/>
    <path id="Path_2340" data-name="Path 2340" d="M8.067,32.3h0Z" transform="translate(-0.875 -3.505)" fill="#fff" stroke="#707070" stroke-linecap="round" stroke-linejoin="round" stroke-width="2"/>
    <line id="Line_391" data-name="Line 391" x2="20.202" transform="translate(7.192 28.799)" fill="none" stroke="#9c9c9c" stroke-linecap="round" stroke-linejoin="round" stroke-width="2"/>
    <path id="Path_2341" data-name="Path 2341" d="M8.067,39.3h0Z" transform="translate(-0.875 -4.264)" fill="#fff" stroke="#707070" stroke-linecap="round" stroke-linejoin="round" stroke-width="2"/>
    <line id="Line_392" data-name="Line 392" x2="17.546" transform="translate(7.192 35.037)" fill="none" stroke="#9c9c9c" stroke-linecap="round" stroke-linejoin="round" stroke-width="2"/>
    <path id="Path_2342" data-name="Path 2342" d="M12.752,19.162H24.583V11.215a21.473,21.473,0,0,1-11.831,7.947" transform="translate(-1.384 -1.217)" fill="#dcdcdc"/>
    <rect id="Rectangle_1050" data-name="Rectangle 1050" width="28.833" height="27.835" transform="translate(27.379 36.557)" fill="#fff" stroke="#707070" stroke-linecap="round" stroke-linejoin="round" stroke-width="2"/>
    <rect id="Rectangle_1051" data-name="Rectangle 1051" width="28.833" height="27.835" transform="translate(27.379 36.557)" fill="none" stroke="#9c9c9c" stroke-linecap="round" stroke-linejoin="round" stroke-width="2"/>
    <path id="Path_2343" data-name="Path 2343" d="M59.706,40.453H29.872a2.268,2.268,0,0,1,0-4.535H59.706a2.268,2.268,0,0,1,0,4.535" transform="translate(-2.994 -3.896)" fill="#dcdcdc" stroke="#707070" stroke-linecap="round" stroke-linejoin="round" stroke-width="2"/>
    <path id="Path_2344" data-name="Path 2344" d="M59.706,40.453H29.872a2.268,2.268,0,0,1,0-4.535H59.706a2.268,2.268,0,0,1,0,4.535Z" transform="translate(-2.994 -3.896)" fill="none" stroke="#9c9c9c" stroke-linecap="round" stroke-linejoin="round" stroke-width="2"/>
    <path id="Path_2345" data-name="Path 2345" d="M36.778,61.738l7-7,4.019,4.018,7.144-7.144" transform="translate(-3.99 -5.6)" fill="#fff" stroke="#707070" stroke-linecap="round" stroke-linejoin="round" stroke-width="2"/>
    <path id="Path_2346" data-name="Path 2346" d="M36.778,61.738l7-7,4.019,4.018,7.144-7.144" transform="translate(-3.99 -5.6)" fill="none" stroke="#9c9c9c" stroke-linecap="round" stroke-linejoin="round" stroke-width="2"/>
    <path id="Path_2347" data-name="Path 2347" d="M51.286,50.734h5.691v5.69" transform="translate(-5.563 -5.504)" fill="none" stroke="#9c9c9c" stroke-linecap="round" stroke-linejoin="round" stroke-width="2"/>
  </g>
</svg>
